<?xml version="1.0" encoding="utf-8"?>
<!-- Generator: Adobe Illustrator 18.1.1, SVG Export Plug-In . SVG Version: 6.00 Build 0)  -->
<svg version="1.1" id="圖層_1" xmlns="http://www.w3.org/2000/svg" xmlns:xlink="http://www.w3.org/1999/xlink" x="0px" y="0px"
	 viewBox="128 0 764.9 768" enable-background="new 128 0 764.9 768" xml:space="preserve">
<path display="none" fill="#865A28" d="M267,251.5v268c0,12.3,10,22.7,22.7,22.7h137.5c8.4,0,16.1-4.6,20-12.3l43.4-85.6
	c8.4-16.5,31.9-16.5,40.3,0l43.4,85.6c3.8,7.7,11.5,12.3,20,12.3h137.5c12.3,0,22.7-10,22.7-22.7v-268c0-12.3-10-22.7-22.7-22.7H290
	C277,229.2,267,239.2,267,251.5z M380.3,437c-45.3,5.8-83.7-32.6-78-78c3.8-31.1,28.8-56.1,59.9-59.9c45.3-5.8,83.7,32.6,78,78
	C436.4,408.2,411.4,433.2,380.3,437z M658.3,437c-45.3,5.8-83.7-32.6-78-78c3.8-31.1,28.8-56.1,59.9-59.9c45.3-5.8,83.7,32.6,78,78
	C714.4,408.2,689.4,433.2,658.3,437z"/>
<g display="none">
	<path display="inline" fill="#3F2810" d="M640.3,299.1c-31.1,3.8-56.1,28.8-59.9,59.9c-5.8,45.3,32.6,83.7,78,78
		c31.1-3.8,56.1-28.8,59.9-59.9C724,331.8,686,293.4,640.3,299.1z"/>
	<path display="inline" fill="#3F2810" d="M362.2,299.1c-31.1,3.8-56.1,28.8-59.9,59.9c-5.8,45.3,32.6,83.7,78,78
		c31.1-3.8,56.1-28.8,59.9-59.9C446,331.8,407.9,293.4,362.2,299.1z"/>
	<path display="inline" fill="#3F2810" d="M530.4,443.9c-8.4-16.5-31.9-16.5-40.3,0l-31.9,63.4h104.1L530.4,443.9z"/>
</g>
<path fill="#E61E63" d="M510.5,3.1C299.3,3.1,128,174.3,128,385.5S299.3,768,510.5,768s382.5-171.3,382.5-382.5S721.7,3.1,510.5,3.1
	z M510.5,750.7c-201.2,0-365.2-163.6-365.2-365.2c0-201.2,164-364.8,365.2-364.8s365.2,163.6,365.2,365.2
	C875.3,586.8,711.7,750.7,510.5,750.7z"/>
<g display="none">
	<g display="inline">
		<g>
			<defs>
				<rect id="SVGID_1_" x="393.7" y="157.4" width="240.8" height="453.1"/>
			</defs>
			<clipPath id="SVGID_2_">
				<use xlink:href="#SVGID_1_"  overflow="visible"/>
			</clipPath>
			<path clip-path="url(#SVGID_2_)" fill="#494949" d="M611.1,157.4H416.8c-13.1,0-23.4,10-23.4,22.7v403.6
				c0,12.3,10.4,22.3,23.4,22.3h193.9c13.1,0,23.4-10,23.4-22.3V180.1C634.5,167.4,623.7,157.4,611.1,157.4L611.1,157.4z
				 M480.1,192.4h67.6v4.6h-67.6V192.4z M513.9,582.5c-7.3,0-13.1-5.8-13.1-13.1c0-7.3,5.8-13.1,13.1-13.1c7.3,0,13.1,5.8,13.1,13.1
				C527,576.8,521.2,582.5,513.9,582.5L513.9,582.5z M618.4,533.8H409.5V224.3h208.9V533.8L618.4,533.8z"/>
		</g>
	</g>
</g>
<g>
	<path fill="#E61E63" d="M438.7,376.7c-3.1,13.8-15.4,24.2-30,24.2c-3.8,0-6.9,3.1-6.9,6.9s3.1,6.9,6.9,6.9
		c22.3,0,40.7-16.5,44.2-38c13.8-1.5,26.1-7.7,36.1-17.7c2.7-2.7,2.7-7.3,0-10s-7.3-2.7-10,0c-8.8,8.8-20.4,13.8-32.6,13.8
		c-25,0-45.7-20.4-45.7-45.7c0-3.8-3.1-6.9-6.9-6.9c-3.8,0-6.9,3.1-6.9,6.9C386.8,347.9,409.5,372.9,438.7,376.7L438.7,376.7z"/>
	<g>
		<g>
			<defs>
				<rect id="SVGID_3_" x="319.2" y="167.8" width="389.8" height="435.8"/>
			</defs>
			<clipPath id="SVGID_4_">
				<use xlink:href="#SVGID_3_"  overflow="visible"/>
			</clipPath>
			<path clip-path="url(#SVGID_4_)" fill="#E61E63" d="M468.2,437.8c0-3.8-3.1-6.9-6.9-6.9c-33,0-59.5,26.9-59.5,59.5
				c0,0.4,0,0.8,0,1.2c-2.7-0.4-5.4-0.4-8.1-0.4c-3.8,0-6.9,3.1-6.9,6.9s3.1,6.9,6.9,6.9c25,0,45.7,20.4,45.7,45.7
				c0,3.8,3.1,6.9,6.9,6.9s6.9-3.1,6.9-6.9c0-25-15.4-46.5-37.2-55.3c0-1.5-0.4-3.1-0.4-5c0-25,20.4-45.7,45.7-45.7
				C465.2,445.1,468.2,441.6,468.2,437.8L468.2,437.8z"/>
		</g>
		<g>
			<defs>
				<rect id="SVGID_5_" x="319.2" y="167.8" width="389.8" height="435.8"/>
			</defs>
			<clipPath id="SVGID_6_">
				<use xlink:href="#SVGID_5_"  overflow="visible"/>
			</clipPath>
			<path clip-path="url(#SVGID_6_)" fill="#E61E63" d="M709,377.9c0-16.1-6.5-31.1-17.7-42.2c1.9-5.8,2.7-11.5,2.7-17.7
				c0-29.2-20.7-53.4-48.4-58.4c1.9-5.4,3.1-10.8,3.1-16.5c0-18.4-11.1-34.2-26.9-41.1c-26.5-21.1-55.3-33.8-77.6-33.8
				c-12.3,0-23.4,6.1-30,15.4c-6.9-9.2-17.7-15.4-30-15.4c-22.3,0-51.1,12.7-77.6,33.8c-15.7,6.9-26.9,22.7-26.9,41.1
				c0,5.8,1.2,11.5,3.1,16.5c-27.6,5.4-48.4,29.6-48.4,58.4c0,6.1,0.8,11.9,2.7,17.7c-11.1,11.1-17.7,26.5-17.7,42.2
				c0,12.7,3.8,24.2,10.4,33.8c-6.9,10-10.4,21.5-10.4,33.8c0,21.5,11.9,41.5,30.7,52.2c-0.4,2.7-0.4,5.4-0.4,8.1
				c0,29.2,19.2,55.3,46.8,64.1c11.9,20.7,33.8,33.4,58,33.4c26.1,0,49.2-15.4,60.3-37.2c11.1,21.9,33.8,37.2,60.3,37.2
				c23.8,0,46.1-12.7,58-33.4c27.6-8.8,46.8-34.6,46.8-64.1c0-2.7,0-5.4-0.4-8.1c18.8-10.4,30.7-30.3,30.7-52.2
				c0-12.3-3.5-23.8-10.4-33.8C705.2,402,709,390.1,709,377.9L709,377.9z M454,588.7c-19.6,0-37.6-10.8-46.8-28.4
				c-0.8-1.9-2.7-3.1-4.2-3.5c-23-6.1-39.2-27.3-39.2-51.1c0-3.5,0.4-7.3,1.2-10.8c0.8-3.1-1.2-6.5-4.2-7.7
				c-16.5-7.3-27.3-23.8-27.3-41.5c0-8.1,2.3-16.1,6.1-23c10.4,9.2,24.2,15,39.6,15c3.8,0,6.9-3.1,6.9-6.9c0-3.8-3.1-6.9-6.9-6.9
				c-25,0-45.7-20.4-45.7-45.7c0-13.4,6.1-26.1,16.5-34.9c2.3-1.9,3.1-5.4,1.9-8.1c-2.3-5.4-3.5-11.1-3.5-17.3
				c0-25,20.4-45.7,45.7-45.7c25,0,45.7,20.4,45.7,45.7c0,3.8,3.1,6.9,6.9,6.9s6.9-3.1,6.9-6.9c0-31.5-24.6-57.6-55.7-59.5
				c-2.7-4.6-4.2-10-4.2-15.7c0-12.7,7.7-23.4,18.4-28c0.4,0,0.8-0.4,1.2-0.4c3.5-1.2,6.9-1.9,10.8-1.9c11.9,0,22.3,6.5,27.6,17.3
				c1.5,3.5,5.8,5,9.6,3.1c3.5-1.5,5-5.8,3.1-9.6c-5.8-12.3-16.9-20.7-30-23.8c18-11.1,35.7-17.3,49.9-17.3c12.7,0,23,10.4,23,23v91
				c-6.1-5-14.2-8.1-23-8.1c-3.8,0-6.9,3.1-6.9,6.9c0,3.8,3.1,6.9,6.9,6.9c12.7,0,23,10.4,23,23v169.3c-8.8-11.1-21.1-20-35.7-23.8
				c-3.8-1.2-7.7,1.2-8.4,5c-1.2,3.8,1.2,7.7,5,8.4c23,6.1,39.2,27.3,39.2,51.1C507,564.9,483.2,588.7,454,588.7L454,588.7z
				 M667.9,486.9c-3.1,1.2-4.6,4.6-4.2,7.7c0.8,3.5,1.2,6.9,1.2,10.8c0,23.8-16.1,44.9-39.2,51.1c-1.9,0.4-3.5,1.9-4.2,3.5
				c-9.2,17.7-27.3,28.4-46.8,28.4c-29.2,0-53-23.8-53-53c0-1.9,0-3.8-0.4-5.8c0-0.8,0.4-1.2,0.4-1.9V294.9c0-12.7,10.4-23,23-23
				c3.8,0,6.9-3.1,6.9-6.9s-3.1-6.9-6.9-6.9c-8.8,0-16.5,3.1-23,8.1v-61.1c0-12.7,10.4-23,23-23c14.2,0,31.9,6.1,49.9,17.3
				c-12.7,3.1-23.8,11.9-30,23.8c-1.5,3.5-0.4,7.7,3.1,9.6c3.5,1.5,7.7,0.4,9.6-3.1c5-10.8,15.7-17.3,27.6-17.3
				c3.8,0,7.3,0.8,10.8,1.9c0.4,0.4,0.8,0.4,1.2,0.4c10.8,4.6,18.4,15.4,18.4,28c0,5.4-1.5,10.8-4.2,15.7
				c-31.1,1.9-55.7,28-55.7,59.5c0,3.8,3.1,6.9,6.9,6.9c3.8,0,6.9-3.1,6.9-6.9c0-25,20.4-45.7,45.7-45.7c25,0,45.7,20.4,45.7,45.7
				c0,5.8-1.2,11.5-3.5,17.3c-1.2,2.7-0.4,6.1,1.9,8.1c10.4,8.8,16.5,21.5,16.5,34.9c0,25-20.4,45.7-45.7,45.7
				c-3.8,0-6.9,3.1-6.9,6.9c0,3.8,3.1,6.9,6.9,6.9c15,0,28.8-5.8,39.6-15c4.2,6.9,6.1,14.6,6.1,23
				C694.8,463.5,684,479.6,667.9,486.9L667.9,486.9z"/>
		</g>
	</g>
	<path fill="#E61E63" d="M634.1,393.2c-14.6,0-26.9-10.4-30-24.2c29.2-3.8,51.8-28.8,51.8-59.1c0-3.8-3.1-6.9-6.9-6.9
		c-3.8,0-6.9,3.1-6.9,6.9c0,25-20.4,45.7-45.7,45.7c-12.3,0-23.8-5-32.6-13.8c-2.7-2.7-7.3-2.7-10,0s-2.7,7.3,0,10
		c9.6,10,22.3,16.1,36.1,17.7c3.1,21.5,21.9,38,44.2,38c3.8,0,6.9-3.1,6.9-6.9C641.4,396.3,638,393.2,634.1,393.2L634.1,393.2z"/>
	<path fill="#E61E63" d="M611.8,475.8c-2.7,0-5.4,0.4-8.1,0.4c0-0.4,0-0.8,0-1.2c0-33-26.9-59.5-59.5-59.5c-3.8,0-6.9,3.1-6.9,6.9
		s3.1,6.9,6.9,6.9c25,0,45.7,20.4,45.7,45.7c0,1.5,0,3.1-0.4,5c-21.9,8.8-37.2,30.3-37.2,55.3c0,3.8,3.1,6.9,6.9,6.9
		c3.8,0,6.9-3.1,6.9-6.9c0-25,20.4-45.7,45.7-45.7c3.8,0,6.9-3.1,6.9-6.9C618.8,479.2,615.7,475.8,611.8,475.8L611.8,475.8z"/>
</g>
<g display="none">
	<path display="inline" fill="#1D60AA" d="M739.7,424.3c0,9.2-7.3,16.5-16.5,16.5c-7.7,0-14.2-5.4-16.1-12.7L608.8,414
		c-2.7,9.2-6.5,17.7-11.5,25.7l49.2,31.1c5.4-6.1,13.4-10,22.3-10c16.5,0,30,13.4,30,30c0,16.5-13.4,30-30,30s-30-13.4-30-30
		c0-4.2,0.8-8.1,2.3-11.5l-49.5-31.5c-12.3,15.4-29.2,26.5-48.8,31.5l8.8,54.5c11.5,0.4,20.7,10,20.7,21.5
		c0,11.9-9.6,21.5-21.5,21.5s-21.5-9.6-21.5-21.5c0-8.8,5-16.1,12.7-19.6l-8.8-54.5c-4.6,0.8-8.8,1.2-13.8,1.2
		c-12.7,0-24.6-2.7-35.7-7.3L444,582.1c2.3,2.3,3.8,5.4,3.8,9.2c0,6.9-5.8,12.3-12.3,12.3c-6.9,0-12.3-5.4-12.3-12.3
		c0-6.5,5-11.9,11.5-12.3l39.9-107.9c-8.1-4.6-15.4-10-21.9-16.5l-61.4,44.9c0,8.1-6.9,14.6-15,14.6s-15-6.5-15-15
		c0-8.1,6.5-15,15-15c4.6,0,8.8,2.3,11.5,5.4l58.4-42.6c-8.8-11.5-15.4-24.6-18-39.6l-90.6,8.4c-1.5,14.2-13.4,25-28,25
		c-15.7,0-28-12.7-28-28c0-15.7,12.7-28,28-28c13.1,0,24.2,9.2,27.3,21.5l90.2-8.4c-0.4-2.7-0.4-5.4-0.4-8.1
		c0-18.4,5.4-35.3,14.6-49.9l-20-15c-4.6,4.2-10.8,6.9-17.7,6.9c-14.6,0-26.5-11.9-26.5-26.5s11.9-26.5,26.5-26.5
		s26.5,11.9,26.5,26.5c0,4.2-1.2,8.1-2.7,11.5l20,15c12.7-15.7,30.3-27.3,50.3-32.3l-18.4-105.6c-6.9-1.2-12.3-7.3-12.3-14.6
		c0-8.1,6.5-15,15-15c8.1,0,15,6.5,15,15c0,5.4-3.1,10.4-7.7,13.1L507.8,298c3.8-0.4,8.1-0.8,12.3-0.8c10.4,0,20.4,1.9,30,5
		l21.1-59.1c-2.3-2.3-3.8-5.4-3.8-9.2c0-6.9,5.4-12.3,12.3-12.3c6.9,0,12.3,5.8,12.3,12.3s-5,11.9-11.5,12.3l-21.5,59.5
		c14.2,6.9,26.9,16.9,36.1,29.6l66-37.6c-0.8-2.3-1.2-4.6-1.2-7.3c0-13.4,10.8-24.2,24.2-24.2s24.2,10.8,24.2,24.2
		s-10.8,24.2-24.2,24.2c-7.3,0-13.4-3.1-18-8.1l-65.7,37.6c7.7,13.4,12.3,29.2,12.3,46.1c0,5-0.4,10-1.2,15l96.8,13.8
		c2.3-6.1,8.4-10.4,15.4-10.4C732,407.8,739.7,415.1,739.7,424.3L739.7,424.3z"/>
</g>
<g display="none">
	<path display="inline" fill="#1D60AA" d="M606.5,155.1H415.2c-18.4,0-33.4,15-33.4,33.4v389c0,18.4,15,33.4,33.4,33.4h191.2
		c18.4,0,33.4-15,33.4-33.4v-389C639.9,170.1,624.9,155.1,606.5,155.1L606.5,155.1z M396.8,215.8h227.7v288.8H396.8V215.8z
		 M415.2,170.1h191.2c10,0,18.4,8.1,18.4,18v12.3H396.8v-12.3C396.8,178.6,405.2,170.1,415.2,170.1L415.2,170.1z M606.5,595.6H415.2
		c-10,0-18.4-8.1-18.4-18v-57.6h227.7v57.6C624.9,587.5,616.4,595.6,606.5,595.6L606.5,595.6z"/>
	<path display="inline" fill="#1D60AA" d="M510.8,527.2c-16.9,0-30.3,13.8-30.3,30.3c0,16.9,13.4,30.3,30.3,30.3
		c16.9,0,30.3-13.8,30.3-30.3C541.2,540.7,527.7,527.2,510.8,527.2L510.8,527.2z M510.8,572.9c-8.4,0-15.4-6.9-15.4-15.4
		s6.9-15,15.4-15c8.4,0,15.4,6.9,15.4,15C525.8,566,519.3,572.9,510.8,572.9L510.8,572.9z"/>
	<path display="inline" fill="#1D60AA" d="M480.5,193.2h30.3c4.2,0,7.7-3.5,7.7-7.7c0-4.2-3.5-7.7-7.7-7.7h-30.3
		c-4.2,0-7.7,3.5-7.7,7.7S476.3,193.2,480.5,193.2L480.5,193.2z"/>
	<path display="inline" fill="#1D60AA" d="M533.5,193.2h7.7c4.2,0,7.7-3.5,7.7-7.7c0-4.2-3.5-7.7-7.7-7.7h-7.7
		c-4.2,0-7.7,3.5-7.7,7.7S529.3,193.2,533.5,193.2L533.5,193.2z"/>
	<rect x="430.2" y="260.4" display="inline" fill="#1D60AA" width="52.6" height="13.4"/>
	<rect x="542.7" y="260.4" display="inline" fill="#1D60AA" width="52.6" height="13.4"/>
	<rect x="430.2" y="391.7" display="inline" fill="#1D60AA" width="52.6" height="13.4"/>
	<rect x="542.7" y="391.7" display="inline" fill="#1D60AA" width="52.6" height="13.4"/>
	<rect x="581.9" y="260.4" display="inline" fill="#1D60AA" width="13.4" height="52.6"/>
	<rect x="581.9" y="352.5" display="inline" fill="#1D60AA" width="13.4" height="52.6"/>
	<rect x="430.2" y="260.4" display="inline" fill="#1D60AA" width="13.4" height="52.6"/>
	<rect x="430.2" y="352.5" display="inline" fill="#1D60AA" width="13.4" height="52.6"/>
</g>
<g display="none">
	<path display="inline" fill="#1D60AA" d="M704.8,239.6c-2.7-1.9-6.1-2.7-9.2-1.9L651,248.4v-21.9c0-16.5-10.4-26.9-27.6-26.9
		c-30.3,0-94.1,36.9-113.3,52.2c-18.4-15.4-79.9-54.9-111.4-54.9c-17.7,0-28.4,11.1-28.4,30v22.3c-10.4-1.5-31.9-6.5-44.5-9.6
		c-3.5-0.8-6.9,0-9.2,1.9c-2.7,1.9-4.2,5.4-4.2,8.4v283.8c0,3.1,1.2,6.1,3.8,8.1c2.3,1.9,5.8,3.1,8.8,2.7c1.2,0,97.9-21.9,145.9,3.5
		c1.9,1.2,4.6,3.5,7.7,5.8c8.1,6.5,19.2,15.4,32.6,15.7l0,0c13.4,0,25-9.2,33.4-16.1c3.1-2.3,6.1-5,7.7-5.8
		c47.6-25.3,143.6-2.7,144.8-2.3c3.1,0.4,6.1-0.4,8.8-2.7c2.3-1.9,3.8-5,3.8-8.1V248.1C709,244.6,707.5,241.5,704.8,239.6
		L704.8,239.6z M391.8,226.6c0-7.7,1.9-8.1,6.9-8.1c25,0,80.3,34.6,96,46.5l15.4,11.1l15-8.4c16.5-11.1,73-46.1,98.3-46.1
		c5.8,0,5.8,1.2,5.8,5v217c-31.9,0.8-87.2,9.2-103.7,18c-16.5,9.2-15,10-15,10s-1.2-1.5-15.7-10.4c-16.9-11.5-71.4-17.3-102.9-17.7
		V226.6z M516.6,490.4l3.5-1.9c34.6-20.4,89.1-23.4,118.3-23.4h12.3V270.3l36.5-8.8V498c-26.1-11.5-102.1-19.6-145.5,3.5
		c-3.8,1.9-7.3,5-11.5,8.1c-6.1,5-13.8,11.5-19.6,11.5c-6.1,0-13.4-6.1-19.2-10.8c-3.8-3.1-7.3-6.1-11.1-7.7
		c-43.4-23-117.5-11.5-146.7-1.5V263.8c11.5,2.7,27.6,6.1,36.5,7.3v194.3h12.3c29.2,0,82.9,3.1,117.5,23l3.5,1.9l3.1,1.5l3.8,2.3"/>
	<g display="inline">
		<path fill="#1D60AA" d="M541.2,372.1l16.5,1.9c-2.7,9.6-7.3,17.3-14.6,22.7c-6.9,5.4-16.1,8.1-27.3,8.1c-13.8,0-25-4.2-33-12.7
			s-12.3-20.4-12.3-35.7c0-15.7,4.2-28.4,12.3-37.2c8.1-8.8,18.8-13.1,31.9-13.1c12.7,0,23,4.2,31.1,13.1
			c8.1,8.4,11.9,20.7,11.9,36.5c0,0.8,0,2.3,0,4.2h-70.3c0.8,10.4,3.5,18.4,8.8,23.8c5.4,5.4,11.9,8.4,20,8.4c5.8,0,10.8-1.5,15-4.6
			C535.4,384,538.5,379,541.2,372.1z M488.2,346.4h53c-0.8-8.1-2.7-13.8-6.1-18c-5-6.1-11.9-9.2-20-9.2c-7.3,0-13.4,2.3-18.4,7.3
			C491.6,331.4,489,337.9,488.2,346.4z"/>
	</g>
</g>
</svg>
