<?xml version="1.0" encoding="utf-8"?>
<!-- Generator: Adobe Illustrator 19.0.0, SVG Export Plug-In . SVG Version: 6.00 Build 0)  -->
<svg version="1.1" id="圖層_1" xmlns="http://www.w3.org/2000/svg" xmlns:xlink="http://www.w3.org/1999/xlink" x="0px" y="0px"
	 viewBox="-272 395.9 50 50" style="enable-background:new -272 395.9 50 50;" xml:space="preserve">
<style type="text/css">
	.st0{display:none;fill:#D25251;}
	.st1{fill:#BF0101;}
</style>
<rect x="-250.7" y="389.3" transform="matrix(0.7071 0.7071 -0.7071 0.7071 225.2939 297.9164)" class="st0" width="7.5" height="63.2"/>
<rect x="-250.8" y="389.3" transform="matrix(-0.7071 0.7071 -0.7071 -0.7071 -124.0772 893.2347)" class="st0" width="7.5" height="63.2"/>
<path class="st1" d="M-247,401.3c-10.8,0-19.6,8.8-19.6,19.6c0,10.8,8.8,19.6,19.6,19.6c10.8,0,19.6-8.8,19.6-19.6
	C-227.4,410.1-236.2,401.3-247,401.3z M-247,434.9c-7.8,0-14.1-6.3-14.1-14.1c0-7.8,6.3-14.1,14.1-14.1c7.8,0,14.1,6.3,14.1,14.1
	C-232.9,428.7-239.2,434.9-247,434.9z"/>
</svg>
